<svg width="500" height="500" viewBox="0 0 500 500" fill="none" xmlns="http://www.w3.org/2000/svg">
<g clip-path="url(#clip0_43_2)">
<path d="M208.333 41.6665V83.3332" stroke="white" stroke-width="45" stroke-linecap="round" stroke-linejoin="round"/>
<path d="M291.667 41.6665V83.3332" stroke="white" stroke-width="45" stroke-linecap="round" stroke-linejoin="round"/>
<path d="M435.833 250C435.833 233.866 429.424 218.392 418.016 206.984C407.001 195.969 392.197 189.614 376.667 189.189V310.809C392.197 310.384 407.001 304.03 418.016 293.015C429.424 281.607 435.833 266.133 435.833 250ZM85 354.167C85 370.3 91.409 385.774 102.817 397.182C114.226 408.591 129.699 414.999 145.833 415H270.833C286.967 415 302.44 408.59 313.849 397.182C325.257 385.774 321.5 438.134 321.5 422L85 429.002V189.167V354.167ZM480.833 250C480.833 278.068 469.683 304.988 449.836 324.835C430.378 344.293 404.123 355.39 376.651 355.818C376.223 383.289 365.127 409.544 345.669 429.002C325.821 448.85 298.902 460 270.833 460H145.833C117.765 459.999 90.8455 448.85 70.998 429.002C51.1504 409.155 40 382.235 40 354.167V187.5C40.0001 176.007 44.5659 164.985 52.6924 156.859C60.8189 148.732 71.8404 144.167 83.333 144.167H375C403.069 144.167 429.988 155.317 449.836 175.165C469.683 195.012 480.833 221.931 480.833 250Z" fill="white"/>
<path d="M125 42.5V84.1667" stroke="white" stroke-width="45" stroke-linecap="round" stroke-linejoin="round"/>
</g>
<defs>
<clipPath id="clip0_43_2">
<rect width="500" height="500" fill="white"/>
</clipPath>
</defs>
</svg>
