<svg width="801" height="800" viewBox="0 0 801 800" fill="none" xmlns="http://www.w3.org/2000/svg">
<path d="M437.97 331.125L460.928 363.796L496.248 338.189V523.62H534.217V279.911H502.429L437.97 331.125Z" fill="#1E88E5"/>
<path d="M377.042 394.702C391.17 382.34 400 363.797 400 344.371C400 305.519 365.563 273.731 324.062 273.731C288.742 273.731 257.837 295.806 249.89 328.477L286.976 338.19C290.508 323.179 306.402 312.583 324.062 312.583C345.254 312.583 362.031 326.711 362.031 344.371C362.031 362.031 345.254 376.159 324.062 376.159H301.987V415.011H324.062C347.903 415.011 368.212 431.788 368.212 451.214C368.212 471.523 348.786 487.417 324.945 487.417C303.753 487.417 285.21 474.172 282.561 455.629L245.475 461.81C251.656 498.013 286.093 525.386 325.828 525.386C370.861 525.386 407.064 491.832 407.064 450.331C406.181 428.256 394.702 407.947 377.042 394.702Z" fill="#1E88E5"/>
<path d="M623.399 800H178.366V622.517H623.399V800Z" fill="#FBC02D"/>
<path d="M800.884 622.517V177.484H623.4V622.517H800.884Z" fill="#4CAF50"/>
<path d="M623.399 177.483V0H67.1082C30.0221 0 0 30.0221 0 67.1082V623.4H177.483V177.483H623.399Z" fill="#1E88E5"/>
<path d="M623.4 622.517V800L800.884 622.517H623.4Z" fill="#E53935"/>
<path d="M734.659 0H623.4V177.483H800.884V66.2252C800.884 29.1391 771.745 0 734.659 0Z" fill="#1565C0"/>
<path d="M67.1089 800H178.367V622.517H0.883789V733.775C0.883789 770.861 30.0229 800 67.1089 800Z" fill="#1565C0"/>
</svg>
