<svg width="800" height="800" viewBox="0 0 800 800" fill="none" xmlns="http://www.w3.org/2000/svg">
<path d="M357.934 610.517V337.277H378.952L547.1 589.498H568.118V316.259" stroke="black" stroke-width="84.0737" stroke-linecap="round" stroke-linejoin="round"/>
<path d="M697.465 718.591L212.78 755.878C205.734 756.416 198.667 755.168 192.23 752.251C185.794 749.335 180.197 744.842 175.956 739.19L72.0831 600.72C66.6258 593.444 63.6758 584.594 63.6758 575.498V123.98C63.6761 113.392 67.6722 103.194 74.8653 95.4241C82.0585 87.6542 91.9189 82.885 102.476 82.0697L581.233 45.2455C599.97 43.8108 618.647 48.6947 634.284 59.1176L698.81 102.121C710.329 109.797 719.775 120.197 726.309 132.399C732.843 144.602 736.263 158.229 736.265 172.071V676.681C736.265 687.269 732.269 697.467 725.075 705.237C717.882 713.007 708.022 717.776 697.465 718.591Z" stroke="black" stroke-width="84.0737" stroke-linecap="round" stroke-linejoin="round"/>
<path d="M84.6943 106.074L189.786 211.166" stroke="black" stroke-width="84.0737" stroke-linecap="round" stroke-linejoin="round"/>
<path d="M736.265 169.13L189.786 211.166V736.627" stroke="black" stroke-width="84.0737" stroke-linecap="round" stroke-linejoin="round"/>
</svg>
