<svg width="800" height="800" viewBox="0 0 800 800" fill="none" xmlns="http://www.w3.org/2000/svg">
<g clip-path="url(#clip0_53_2)">
<path d="M700.006 0H99.9938C44.8686 0.123426 0.192128 44.8026 0 100V700C0 755 44.991 800 99.9938 800H700.006C755.009 800 800 755 800 700V100C800 45 755.009 0 700.006 0Z" fill="#E44332"/>
<path d="M169.165 377.508C183.113 369.363 482.738 195.242 489.587 191.207C496.436 187.222 496.81 174.968 489.089 170.535C481.418 166.126 466.847 157.758 461.443 154.545C453.726 150.299 444.347 150.413 436.735 154.844C432.9 157.085 176.886 305.777 168.343 310.659C158.057 316.537 145.429 316.636 135.217 310.659L0 231.307V298.753C32.8766 318.131 114.744 366.25 134.57 377.582C146.4 384.307 157.733 384.158 169.19 377.508" fill="white"/>
<path d="M169.165 505.029C183.113 496.885 482.738 322.763 489.587 318.728C496.436 314.743 496.81 302.489 489.089 298.056C481.418 293.648 466.847 285.279 461.443 282.066C453.726 277.821 444.347 277.934 436.735 282.365C432.9 284.607 176.886 433.298 168.343 438.18C158.057 444.058 145.429 444.158 135.217 438.18L0 358.828V426.275C32.8766 445.652 114.744 493.771 134.57 505.104C146.4 511.829 157.733 511.679 169.19 505.029" fill="white"/>
<path d="M169.165 640.52C183.113 632.376 482.738 458.255 489.587 454.22C496.436 450.235 496.81 437.981 489.089 433.547C481.418 429.139 466.847 420.77 461.443 417.557C453.726 413.312 444.347 413.425 436.735 417.856C432.9 420.098 176.886 568.79 168.343 573.671C158.057 579.549 145.429 579.649 135.217 573.671L0 494.319V561.766C32.8766 581.143 114.744 629.263 134.57 640.595C146.4 647.32 157.733 647.17 169.19 640.52" fill="white"/>
</g>
<defs>
<clipPath id="clip0_53_2">
<rect width="800" height="800" fill="white"/>
</clipPath>
</defs>
</svg>
